<mxfile host="drawio-plugin" modified="2024-05-30T20:08:11.336Z" agent="Mozilla/5.0 (Windows NT 10.0; Win64; x64) AppleWebKit/537.36 (KHTML, like Gecko) Chrome/122.0.0.0 Safari/537.36" etag="WLUD2IY40yS1f7hPU7Zh" version="22.1.22" type="embed" pages="2">
  <diagram name="第 1 页" id="jV1YTC150RhrFMLJDcWB">
    <mxGraphModel dx="805" dy="753" grid="1" gridSize="10" guides="1" tooltips="1" connect="1" arrows="1" fold="1" page="1" pageScale="1" pageWidth="827" pageHeight="1169" math="0" shadow="0">
      <root>
        <mxCell id="0" />
        <mxCell id="1" parent="0" />
        <mxCell id="mOX0DmgIX76nbk4pJakD-7" style="edgeStyle=orthogonalEdgeStyle;rounded=0;orthogonalLoop=1;jettySize=auto;html=1;entryX=0;entryY=0.5;entryDx=0;entryDy=0;" parent="1" source="mOX0DmgIX76nbk4pJakD-2" target="mOX0DmgIX76nbk4pJakD-3" edge="1">
          <mxGeometry relative="1" as="geometry" />
        </mxCell>
        <mxCell id="mOX0DmgIX76nbk4pJakD-2" value="翻译委托商" style="swimlane;fontStyle=0;childLayout=stackLayout;horizontal=1;startSize=20;fillColor=#ffffff;horizontalStack=0;resizeParent=1;resizeParentMax=0;resizeLast=0;collapsible=0;marginBottom=0;swimlaneFillColor=#ffffff;" parent="1" vertex="1">
          <mxGeometry x="20" y="20" width="100" height="50" as="geometry" />
        </mxCell>
        <mxCell id="mOX0DmgIX76nbk4pJakD-8" style="edgeStyle=orthogonalEdgeStyle;rounded=0;orthogonalLoop=1;jettySize=auto;html=1;entryX=0;entryY=0.5;entryDx=0;entryDy=0;" parent="1" source="mOX0DmgIX76nbk4pJakD-3" target="mOX0DmgIX76nbk4pJakD-6" edge="1">
          <mxGeometry relative="1" as="geometry" />
        </mxCell>
        <mxCell id="mOX0DmgIX76nbk4pJakD-3" value="中文化" style="shape=ellipse;html=1;dashed=0;whiteSpace=wrap;perimeter=ellipsePerimeter;" parent="1" vertex="1">
          <mxGeometry x="228" y="20" width="100" height="50" as="geometry" />
        </mxCell>
        <mxCell id="mOX0DmgIX76nbk4pJakD-20" style="edgeStyle=orthogonalEdgeStyle;rounded=0;orthogonalLoop=1;jettySize=auto;html=1;exitX=0;exitY=0.5;exitDx=0;exitDy=0;" parent="1" source="mOX0DmgIX76nbk4pJakD-6" target="mOX0DmgIX76nbk4pJakD-3" edge="1">
          <mxGeometry relative="1" as="geometry">
            <Array as="points">
              <mxPoint x="440" y="50" />
            </Array>
          </mxGeometry>
        </mxCell>
        <mxCell id="mOX0DmgIX76nbk4pJakD-6" value="玩家" style="swimlane;fontStyle=0;childLayout=stackLayout;horizontal=1;startSize=20;fillColor=#ffffff;horizontalStack=0;resizeParent=1;resizeParentMax=0;resizeLast=0;collapsible=0;marginBottom=0;swimlaneFillColor=#ffffff;" parent="1" vertex="1">
          <mxGeometry x="440" y="20" width="100" height="50" as="geometry" />
        </mxCell>
        <mxCell id="mOX0DmgIX76nbk4pJakD-9" value="中文化请求" style="text;html=1;align=center;verticalAlign=middle;whiteSpace=wrap;rounded=0;fontFamily=Helvetica;fontSize=11;fontColor=default;labelBackgroundColor=default;" parent="1" vertex="1">
          <mxGeometry x="139.9999999999999" y="20" width="60" height="30" as="geometry" />
        </mxCell>
        <mxCell id="mOX0DmgIX76nbk4pJakD-10" value="未翻译的游戏" style="text;html=1;align=center;verticalAlign=middle;whiteSpace=wrap;rounded=0;fontFamily=Helvetica;fontSize=11;fontColor=default;labelBackgroundColor=default;" parent="1" vertex="1">
          <mxGeometry x="135" y="40" width="70" height="30" as="geometry" />
        </mxCell>
        <mxCell id="mOX0DmgIX76nbk4pJakD-11" value="中文化后的游戏" style="text;html=1;align=center;verticalAlign=middle;resizable=0;points=[];autosize=1;strokeColor=none;fillColor=none;fontFamily=Helvetica;fontSize=11;fontColor=default;labelBackgroundColor=default;" parent="1" vertex="1">
          <mxGeometry x="330" y="20" width="100" height="30" as="geometry" />
        </mxCell>
        <mxCell id="mOX0DmgIX76nbk4pJakD-21" value="翻译反馈" style="text;html=1;align=center;verticalAlign=middle;resizable=0;points=[];autosize=1;strokeColor=none;fillColor=none;fontFamily=Helvetica;fontSize=11;fontColor=default;labelBackgroundColor=default;" parent="1" vertex="1">
          <mxGeometry x="345" y="50" width="70" height="30" as="geometry" />
        </mxCell>
      </root>
    </mxGraphModel>
  </diagram>
  <diagram id="oeC1LXbl_0zArjabqjEF" name="Page-2">
    <mxGraphModel dx="805" dy="753" grid="1" gridSize="10" guides="1" tooltips="1" connect="1" arrows="1" fold="1" page="1" pageScale="1" pageWidth="850" pageHeight="1100" math="0" shadow="0">
      <root>
        <mxCell id="0" />
        <mxCell id="1" parent="0" />
        <mxCell id="ljJRai7rHnkuPCcLxWM4-1" style="edgeStyle=orthogonalEdgeStyle;rounded=0;orthogonalLoop=1;jettySize=auto;html=1;" parent="1" source="ljJRai7rHnkuPCcLxWM4-2" target="ljJRai7rHnkuPCcLxWM4-9" edge="1">
          <mxGeometry relative="1" as="geometry" />
        </mxCell>
        <mxCell id="ljJRai7rHnkuPCcLxWM4-2" value="提取文本" style="shape=ellipse;html=1;dashed=0;whiteSpace=wrap;perimeter=ellipsePerimeter;" parent="1" vertex="1">
          <mxGeometry x="240" y="100" width="100" height="50" as="geometry" />
        </mxCell>
        <mxCell id="ljJRai7rHnkuPCcLxWM4-3" style="edgeStyle=orthogonalEdgeStyle;rounded=0;orthogonalLoop=1;jettySize=auto;html=1;" parent="1" source="ljJRai7rHnkuPCcLxWM4-9" target="ljJRai7rHnkuPCcLxWM4-16" edge="1">
          <mxGeometry relative="1" as="geometry" />
        </mxCell>
        <mxCell id="ljJRai7rHnkuPCcLxWM4-4" style="rounded=0;orthogonalLoop=1;jettySize=auto;html=1;entryX=0;entryY=0.5;entryDx=0;entryDy=0;startArrow=classic;startFill=1;" parent="1" source="ljJRai7rHnkuPCcLxWM4-9" target="ljJRai7rHnkuPCcLxWM4-45" edge="1">
          <mxGeometry relative="1" as="geometry" />
        </mxCell>
        <mxCell id="ljJRai7rHnkuPCcLxWM4-5" style="rounded=0;orthogonalLoop=1;jettySize=auto;html=1;entryX=0;entryY=0.5;entryDx=0;entryDy=0;startArrow=block;startFill=1;" parent="1" source="ljJRai7rHnkuPCcLxWM4-9" target="ljJRai7rHnkuPCcLxWM4-27" edge="1">
          <mxGeometry relative="1" as="geometry" />
        </mxCell>
        <mxCell id="ljJRai7rHnkuPCcLxWM4-6" style="rounded=0;orthogonalLoop=1;jettySize=auto;html=1;entryX=0;entryY=0.5;entryDx=0;entryDy=0;endArrow=none;endFill=0;startArrow=classic;startFill=1;" parent="1" source="ljJRai7rHnkuPCcLxWM4-9" target="ljJRai7rHnkuPCcLxWM4-40" edge="1">
          <mxGeometry relative="1" as="geometry" />
        </mxCell>
        <mxCell id="ljJRai7rHnkuPCcLxWM4-7" style="rounded=0;orthogonalLoop=1;jettySize=auto;html=1;entryX=0;entryY=0.5;entryDx=0;entryDy=0;endArrow=none;endFill=0;startArrow=classic;startFill=1;" parent="1" source="ljJRai7rHnkuPCcLxWM4-9" target="ljJRai7rHnkuPCcLxWM4-41" edge="1">
          <mxGeometry relative="1" as="geometry" />
        </mxCell>
        <mxCell id="ljJRai7rHnkuPCcLxWM4-8" style="rounded=0;orthogonalLoop=1;jettySize=auto;html=1;entryX=0;entryY=0.5;entryDx=0;entryDy=0;startArrow=classic;startFill=1;endArrow=none;endFill=0;" parent="1" source="ljJRai7rHnkuPCcLxWM4-9" target="ljJRai7rHnkuPCcLxWM4-43" edge="1">
          <mxGeometry relative="1" as="geometry" />
        </mxCell>
        <mxCell id="ljJRai7rHnkuPCcLxWM4-9" value="翻译文本" style="shape=ellipse;html=1;dashed=0;whiteSpace=wrap;perimeter=ellipsePerimeter;" parent="1" vertex="1">
          <mxGeometry x="240" y="190" width="100" height="50" as="geometry" />
        </mxCell>
        <mxCell id="ljJRai7rHnkuPCcLxWM4-10" style="edgeStyle=orthogonalEdgeStyle;rounded=0;orthogonalLoop=1;jettySize=auto;html=1;exitX=0.5;exitY=1;exitDx=0;exitDy=0;" parent="1" source="ljJRai7rHnkuPCcLxWM4-16" target="ljJRai7rHnkuPCcLxWM4-19" edge="1">
          <mxGeometry relative="1" as="geometry" />
        </mxCell>
        <mxCell id="ljJRai7rHnkuPCcLxWM4-11" style="rounded=0;orthogonalLoop=1;jettySize=auto;html=1;entryX=0;entryY=0.5;entryDx=0;entryDy=0;startArrow=classic;startFill=1;" parent="1" source="ljJRai7rHnkuPCcLxWM4-16" target="ljJRai7rHnkuPCcLxWM4-45" edge="1">
          <mxGeometry relative="1" as="geometry" />
        </mxCell>
        <mxCell id="ljJRai7rHnkuPCcLxWM4-12" style="rounded=0;orthogonalLoop=1;jettySize=auto;html=1;entryX=0;entryY=0.5;entryDx=0;entryDy=0;startArrow=classic;startFill=1;" parent="1" source="ljJRai7rHnkuPCcLxWM4-16" target="ljJRai7rHnkuPCcLxWM4-27" edge="1">
          <mxGeometry relative="1" as="geometry" />
        </mxCell>
        <mxCell id="ljJRai7rHnkuPCcLxWM4-13" style="rounded=0;orthogonalLoop=1;jettySize=auto;html=1;entryX=0;entryY=0.5;entryDx=0;entryDy=0;endArrow=none;endFill=0;startArrow=classic;startFill=1;" parent="1" source="ljJRai7rHnkuPCcLxWM4-16" target="ljJRai7rHnkuPCcLxWM4-40" edge="1">
          <mxGeometry relative="1" as="geometry" />
        </mxCell>
        <mxCell id="ljJRai7rHnkuPCcLxWM4-14" style="rounded=0;orthogonalLoop=1;jettySize=auto;html=1;entryX=0;entryY=0.5;entryDx=0;entryDy=0;endArrow=none;endFill=0;startArrow=classic;startFill=1;" parent="1" source="ljJRai7rHnkuPCcLxWM4-16" target="ljJRai7rHnkuPCcLxWM4-41" edge="1">
          <mxGeometry relative="1" as="geometry" />
        </mxCell>
        <mxCell id="ljJRai7rHnkuPCcLxWM4-15" style="rounded=0;orthogonalLoop=1;jettySize=auto;html=1;entryX=0;entryY=0.5;entryDx=0;entryDy=0;endArrow=none;endFill=0;startArrow=classic;startFill=1;" parent="1" source="ljJRai7rHnkuPCcLxWM4-16" target="ljJRai7rHnkuPCcLxWM4-43" edge="1">
          <mxGeometry relative="1" as="geometry" />
        </mxCell>
        <mxCell id="ljJRai7rHnkuPCcLxWM4-16" value="校对翻译" style="shape=ellipse;html=1;dashed=0;whiteSpace=wrap;perimeter=ellipsePerimeter;" parent="1" vertex="1">
          <mxGeometry x="240" y="280" width="100" height="50" as="geometry" />
        </mxCell>
        <mxCell id="ljJRai7rHnkuPCcLxWM4-17" style="edgeStyle=orthogonalEdgeStyle;rounded=0;orthogonalLoop=1;jettySize=auto;html=1;entryX=0.5;entryY=0;entryDx=0;entryDy=0;" parent="1" source="ljJRai7rHnkuPCcLxWM4-19" target="ljJRai7rHnkuPCcLxWM4-21" edge="1">
          <mxGeometry relative="1" as="geometry" />
        </mxCell>
        <mxCell id="ljJRai7rHnkuPCcLxWM4-18" style="edgeStyle=orthogonalEdgeStyle;rounded=0;orthogonalLoop=1;jettySize=auto;html=1;entryX=0;entryY=0.5;entryDx=0;entryDy=0;startArrow=classic;startFill=1;" parent="1" source="ljJRai7rHnkuPCcLxWM4-19" target="ljJRai7rHnkuPCcLxWM4-46" edge="1">
          <mxGeometry relative="1" as="geometry" />
        </mxCell>
        <mxCell id="ljJRai7rHnkuPCcLxWM4-19" value="打包游戏" style="shape=ellipse;html=1;dashed=0;whiteSpace=wrap;perimeter=ellipsePerimeter;" parent="1" vertex="1">
          <mxGeometry x="240" y="370" width="100" height="50" as="geometry" />
        </mxCell>
        <mxCell id="ljJRai7rHnkuPCcLxWM4-20" style="edgeStyle=orthogonalEdgeStyle;rounded=0;orthogonalLoop=1;jettySize=auto;html=1;entryX=0;entryY=0.5;entryDx=0;entryDy=0;" parent="1" source="ljJRai7rHnkuPCcLxWM4-21" target="ljJRai7rHnkuPCcLxWM4-26" edge="1">
          <mxGeometry relative="1" as="geometry" />
        </mxCell>
        <mxCell id="ljJRai7rHnkuPCcLxWM4-21" value="发布游戏" style="shape=ellipse;html=1;dashed=0;whiteSpace=wrap;perimeter=ellipsePerimeter;" parent="1" vertex="1">
          <mxGeometry x="240" y="460" width="100" height="50" as="geometry" />
        </mxCell>
        <mxCell id="ljJRai7rHnkuPCcLxWM4-22" style="rounded=0;orthogonalLoop=1;jettySize=auto;html=1;entryX=0;entryY=0.5;entryDx=0;entryDy=0;" parent="1" source="ljJRai7rHnkuPCcLxWM4-24" target="ljJRai7rHnkuPCcLxWM4-32" edge="1">
          <mxGeometry relative="1" as="geometry" />
        </mxCell>
        <mxCell id="ljJRai7rHnkuPCcLxWM4-23" style="rounded=0;orthogonalLoop=1;jettySize=auto;html=1;entryX=0;entryY=0.5;entryDx=0;entryDy=0;" parent="1" source="ljJRai7rHnkuPCcLxWM4-24" target="ljJRai7rHnkuPCcLxWM4-2" edge="1">
          <mxGeometry relative="1" as="geometry" />
        </mxCell>
        <mxCell id="ljJRai7rHnkuPCcLxWM4-24" value="翻译委托商" style="swimlane;fontStyle=0;childLayout=stackLayout;horizontal=1;startSize=20;fillColor=#ffffff;horizontalStack=0;resizeParent=1;resizeParentMax=0;resizeLast=0;collapsible=0;marginBottom=0;swimlaneFillColor=#ffffff;" parent="1" vertex="1">
          <mxGeometry x="10" y="10" width="100" height="50" as="geometry" />
        </mxCell>
        <mxCell id="ljJRai7rHnkuPCcLxWM4-25" style="rounded=0;orthogonalLoop=1;jettySize=auto;html=1;" parent="1" source="ljJRai7rHnkuPCcLxWM4-26" target="ljJRai7rHnkuPCcLxWM4-39" edge="1">
          <mxGeometry relative="1" as="geometry" />
        </mxCell>
        <mxCell id="ljJRai7rHnkuPCcLxWM4-26" value="玩家" style="swimlane;fontStyle=0;childLayout=stackLayout;horizontal=1;startSize=20;fillColor=#ffffff;horizontalStack=0;resizeParent=1;resizeParentMax=0;resizeLast=0;collapsible=0;marginBottom=0;swimlaneFillColor=#ffffff;" parent="1" vertex="1">
          <mxGeometry x="480" y="460" width="100" height="50" as="geometry" />
        </mxCell>
        <mxCell id="ljJRai7rHnkuPCcLxWM4-27" value="词汇表" style="html=1;dashed=0;whiteSpace=wrap;shape=partialRectangle;right=0;" parent="1" vertex="1">
          <mxGeometry x="570" y="60" width="100" height="30" as="geometry" />
        </mxCell>
        <mxCell id="ljJRai7rHnkuPCcLxWM4-28" style="edgeStyle=orthogonalEdgeStyle;rounded=0;orthogonalLoop=1;jettySize=auto;html=1;exitX=0.5;exitY=1;exitDx=0;exitDy=0;" parent="1" source="ljJRai7rHnkuPCcLxWM4-32" target="ljJRai7rHnkuPCcLxWM4-2" edge="1">
          <mxGeometry relative="1" as="geometry" />
        </mxCell>
        <mxCell id="ljJRai7rHnkuPCcLxWM4-29" style="rounded=0;orthogonalLoop=1;jettySize=auto;html=1;entryX=0;entryY=0.5;entryDx=0;entryDy=0;startArrow=classic;startFill=1;" parent="1" source="ljJRai7rHnkuPCcLxWM4-32" target="ljJRai7rHnkuPCcLxWM4-27" edge="1">
          <mxGeometry relative="1" as="geometry" />
        </mxCell>
        <mxCell id="ljJRai7rHnkuPCcLxWM4-30" style="rounded=0;orthogonalLoop=1;jettySize=auto;html=1;entryX=0;entryY=0.5;entryDx=0;entryDy=0;startArrow=classic;startFill=1;" parent="1" source="ljJRai7rHnkuPCcLxWM4-32" target="ljJRai7rHnkuPCcLxWM4-40" edge="1">
          <mxGeometry relative="1" as="geometry" />
        </mxCell>
        <mxCell id="ljJRai7rHnkuPCcLxWM4-31" style="rounded=0;orthogonalLoop=1;jettySize=auto;html=1;entryX=0;entryY=0.5;entryDx=0;entryDy=0;startArrow=classic;startFill=1;" parent="1" source="ljJRai7rHnkuPCcLxWM4-32" target="ljJRai7rHnkuPCcLxWM4-41" edge="1">
          <mxGeometry relative="1" as="geometry" />
        </mxCell>
        <mxCell id="ljJRai7rHnkuPCcLxWM4-32" value="准备翻译" style="shape=ellipse;html=1;dashed=0;whiteSpace=wrap;perimeter=ellipsePerimeter;" parent="1" vertex="1">
          <mxGeometry x="240" y="10" width="100" height="50" as="geometry" />
        </mxCell>
        <mxCell id="ljJRai7rHnkuPCcLxWM4-33" value="翻译计划书" style="text;html=1;align=center;verticalAlign=middle;whiteSpace=wrap;rounded=0;fontFamily=Helvetica;fontSize=11;fontColor=default;labelBackgroundColor=default;" parent="1" vertex="1">
          <mxGeometry x="289.9999999999999" y="60" width="60" height="30" as="geometry" />
        </mxCell>
        <mxCell id="ljJRai7rHnkuPCcLxWM4-34" value="提取后的文本" style="text;html=1;align=center;verticalAlign=middle;whiteSpace=wrap;rounded=0;fontFamily=Helvetica;fontSize=11;fontColor=default;labelBackgroundColor=default;" parent="1" vertex="1">
          <mxGeometry x="290" y="150" width="70" height="30" as="geometry" />
        </mxCell>
        <mxCell id="ljJRai7rHnkuPCcLxWM4-35" value="翻译后的文本" style="text;html=1;align=center;verticalAlign=middle;whiteSpace=wrap;rounded=0;fontFamily=Helvetica;fontSize=11;fontColor=default;labelBackgroundColor=default;" parent="1" vertex="1">
          <mxGeometry x="289" y="240" width="75" height="30" as="geometry" />
        </mxCell>
        <mxCell id="ljJRai7rHnkuPCcLxWM4-36" value="校对后的文本" style="text;html=1;align=center;verticalAlign=middle;whiteSpace=wrap;rounded=0;fontFamily=Helvetica;fontSize=11;fontColor=default;labelBackgroundColor=default;" parent="1" vertex="1">
          <mxGeometry x="290" y="330" width="70" height="30" as="geometry" />
        </mxCell>
        <mxCell id="ljJRai7rHnkuPCcLxWM4-37" value="翻译后的游戏" style="text;html=1;align=center;verticalAlign=middle;whiteSpace=wrap;rounded=0;fontFamily=Helvetica;fontSize=11;fontColor=default;labelBackgroundColor=default;" parent="1" vertex="1">
          <mxGeometry x="290" y="420" width="70" height="30" as="geometry" />
        </mxCell>
        <mxCell id="ljJRai7rHnkuPCcLxWM4-38" style="rounded=0;orthogonalLoop=1;jettySize=auto;html=1;entryX=0.5;entryY=1;entryDx=0;entryDy=0;" parent="1" source="ljJRai7rHnkuPCcLxWM4-39" target="ljJRai7rHnkuPCcLxWM4-43" edge="1">
          <mxGeometry relative="1" as="geometry" />
        </mxCell>
        <mxCell id="ljJRai7rHnkuPCcLxWM4-39" value="汇总反馈" style="shape=ellipse;html=1;dashed=0;whiteSpace=wrap;perimeter=ellipsePerimeter;" parent="1" vertex="1">
          <mxGeometry x="570" y="295" width="100" height="50" as="geometry" />
        </mxCell>
        <mxCell id="ljJRai7rHnkuPCcLxWM4-40" value="翻译标准" style="html=1;dashed=0;whiteSpace=wrap;shape=partialRectangle;right=0;" parent="1" vertex="1">
          <mxGeometry x="570" y="100" width="100" height="30" as="geometry" />
        </mxCell>
        <mxCell id="ljJRai7rHnkuPCcLxWM4-41" value="文化研究报告" style="html=1;dashed=0;whiteSpace=wrap;shape=partialRectangle;right=0;" parent="1" vertex="1">
          <mxGeometry x="570" y="140" width="100" height="30" as="geometry" />
        </mxCell>
        <mxCell id="ljJRai7rHnkuPCcLxWM4-42" value="发布的游戏" style="text;html=1;align=center;verticalAlign=middle;whiteSpace=wrap;rounded=0;fontFamily=Helvetica;fontSize=11;fontColor=default;labelBackgroundColor=default;" parent="1" vertex="1">
          <mxGeometry x="369.9999999999999" y="460" width="60" height="30" as="geometry" />
        </mxCell>
        <mxCell id="ljJRai7rHnkuPCcLxWM4-43" value="翻译反馈汇总" style="html=1;dashed=0;whiteSpace=wrap;shape=partialRectangle;right=0;" parent="1" vertex="1">
          <mxGeometry x="570" y="180" width="100" height="30" as="geometry" />
        </mxCell>
        <mxCell id="ljJRai7rHnkuPCcLxWM4-44" style="edgeStyle=orthogonalEdgeStyle;rounded=0;orthogonalLoop=1;jettySize=auto;html=1;entryX=1;entryY=0.5;entryDx=0;entryDy=0;startArrow=classic;startFill=1;" parent="1" source="ljJRai7rHnkuPCcLxWM4-45" target="ljJRai7rHnkuPCcLxWM4-32" edge="1">
          <mxGeometry relative="1" as="geometry" />
        </mxCell>
        <mxCell id="ljJRai7rHnkuPCcLxWM4-45" value="语料库" style="html=1;dashed=0;whiteSpace=wrap;shape=partialRectangle;right=0;" parent="1" vertex="1">
          <mxGeometry x="570" y="20" width="100" height="30" as="geometry" />
        </mxCell>
        <mxCell id="ljJRai7rHnkuPCcLxWM4-46" value="版本归档" style="html=1;dashed=0;whiteSpace=wrap;shape=partialRectangle;right=0;" parent="1" vertex="1">
          <mxGeometry x="400" y="380" width="100" height="30" as="geometry" />
        </mxCell>
        <mxCell id="ljJRai7rHnkuPCcLxWM4-47" value="中文化请求" style="text;html=1;align=center;verticalAlign=middle;whiteSpace=wrap;rounded=0;fontFamily=Helvetica;fontSize=11;fontColor=default;labelBackgroundColor=default;" parent="1" vertex="1">
          <mxGeometry x="139.9999999999999" y="10" width="60" height="30" as="geometry" />
        </mxCell>
        <mxCell id="ljJRai7rHnkuPCcLxWM4-48" value="未翻译的游戏" style="text;html=1;align=center;verticalAlign=middle;whiteSpace=wrap;rounded=0;fontFamily=Helvetica;fontSize=11;fontColor=default;labelBackgroundColor=default;" parent="1" vertex="1">
          <mxGeometry x="178" y="70" width="75" height="30" as="geometry" />
        </mxCell>
        <mxCell id="ljJRai7rHnkuPCcLxWM4-49" value="翻译反馈" style="text;html=1;align=center;verticalAlign=middle;whiteSpace=wrap;rounded=0;fontFamily=Helvetica;fontSize=11;fontColor=default;labelBackgroundColor=default;" parent="1" vertex="1">
          <mxGeometry x="569.9999999999999" y="400" width="60" height="30" as="geometry" />
        </mxCell>
      </root>
    </mxGraphModel>
  </diagram>
</mxfile>
